HIERARCHY
ROOT newVegas:Hips
{
	OFFSET 0.000000 96.479958 0.000000
	CHANNELS 6 Xposition Yposition Zposition Xrotation Yrotation Zrotation
	JOINT newVegas:Pelvis
	{
		OFFSET 0.000000 0.000000 0.000000
		CHANNELS 3 Xrotation Yrotation Zrotation
		JOINT newVegas:LeftUpLeg
		{
			OFFSET 18.735201 -5.666702 -4.541200
			CHANNELS 3 Xrotation Yrotation Zrotation
			JOINT newVegas:LeftLeg
			{
				OFFSET -0.021200 -31.938179 0.493100
				CHANNELS 3 Xrotation Yrotation Zrotation
				JOINT newVegas:LeftFoot
				{
					OFFSET 0.021200 -31.938179 -4.336299
					CHANNELS 3 Xrotation Yrotation Zrotation
					JOINT newVegas:LeftToeBase
					{
						OFFSET 0.943001 -26.722000 15.023500
						CHANNELS 3 Xrotation Yrotation Zrotation
						End Site
						{
							OFFSET 0.000000 30.670183 0.000000
						}
					}
				}
				JOINT newVegas:Left_PantLeg
				{
					OFFSET 0.663870 -9.044666 -1.108900
					CHANNELS 3 Xrotation Yrotation Zrotation
					End Site
					{
						OFFSET 1.415995 20.635357 0.000000
					}
				}
			}
		}
		JOINT newVegas:RightUpLeg
		{
			OFFSET -18.735201 -5.666702 -4.541200
			CHANNELS 3 Xrotation Yrotation Zrotation
			JOINT newVegas:RightLeg
			{
				OFFSET 0.018946 -31.938133 0.493100
				CHANNELS 3 Xrotation Yrotation Zrotation
				JOINT newVegas:RightFoot
				{
					OFFSET -0.018946 -31.938126 -4.336299
					CHANNELS 3 Xrotation Yrotation Zrotation
					JOINT newVegas:RightToeBase
					{
						OFFSET -0.943001 -26.722004 15.023500
						CHANNELS 3 Xrotation Yrotation Zrotation
						End Site
						{
							OFFSET 0.000000 30.670187 0.000000
						}
					}
				}
				JOINT newVegas:Right_PantLeg
				{
					OFFSET -0.661674 -9.044716 -1.108900
					CHANNELS 3 Xrotation Yrotation Zrotation
					End Site
					{
						OFFSET -1.415958 20.635269 0.000000
					}
				}
			}
		}
	}
	JOINT newVegas:Spine
	{
		OFFSET 0.000000 10.199997 -0.299500
		CHANNELS 3 Xrotation Yrotation Zrotation
		JOINT newVegas:Spine1
		{
			OFFSET 0.000000 11.900002 -1.516600
			CHANNELS 3 Xrotation Yrotation Zrotation
			JOINT newVegas:Spine2
			{
				OFFSET 0.000000 13.600006 -2.842500
				CHANNELS 3 Xrotation Yrotation Zrotation
				JOINT newVegas:Neck
				{
					OFFSET 0.000000 9.624100 -2.890100
					CHANNELS 3 Xrotation Yrotation Zrotation
					JOINT newVegas:Head
					{
						OFFSET 0.000000 14.068802 -1.351900
						CHANNELS 3 Xrotation Yrotation Zrotation
						JOINT newVegas:Hair_Back
						{
							OFFSET 0.000000 3.231903 -17.524799
							CHANNELS 3 Xrotation Yrotation Zrotation
							End Site
							{
								OFFSET 0.000000 19.849884 0.000000
							}
						}
						JOINT newVegas:Hair_Front
						{
							OFFSET 0.000000 31.260406 4.573800
							CHANNELS 3 Xrotation Yrotation Zrotation
							JOINT newVegas:Hair_Front1
							{
								OFFSET 0.000000 2.284103 11.993300
								CHANNELS 3 Xrotation Yrotation Zrotation
								JOINT newVegas:Hair_Front2
								{
									OFFSET 0.000000 2.284103 11.993300
									CHANNELS 3 Xrotation Yrotation Zrotation
									End Site
									{
										OFFSET 0.000000 12.208862 0.000000
									}
								}
							}
						}
						JOINT newVegas:Jowel
						{
							OFFSET 0.000000 -7.458206 6.864100
							CHANNELS 3 Xrotation Yrotation Zrotation
							End Site
							{
								OFFSET 0.000000 19.849884 0.000000
							}
						}
					}
				}
				JOINT newVegas:LeftShoulder
				{
					OFFSET 15.263000 10.923401 -0.547700
					CHANNELS 3 Xrotation Yrotation Zrotation
					JOINT newVegas:LeftArm
					{
						OFFSET 25.438599 -2.830597 -13.032500
						CHANNELS 3 Xrotation Yrotation Zrotation
						JOINT newVegas:LeftForeArm
						{
							OFFSET 29.960503 0.000000 0.000000
							CHANNELS 3 Xrotation Yrotation Zrotation
							JOINT newVegas:LeftHand
							{
								OFFSET 27.849251 0.000000 0.000000
								CHANNELS 3 Xrotation Yrotation Zrotation
								JOINT newVegas:LeftHandThumb1
								{
									OFFSET 4.487587 -3.305161 6.305391
									CHANNELS 3 Xrotation Yrotation Zrotation
									JOINT newVegas:LeftHandThumb2
									{
										OFFSET 5.480453 -3.164139 3.164143
										CHANNELS 3 Xrotation Yrotation Zrotation
										JOINT newVegas:LeftHandThumb3
										{
											OFFSET 5.159721 -2.978973 2.978967
											CHANNELS 3 Xrotation Yrotation Zrotation
											End Site
											{
												OFFSET 2.494507 5.926697 1.738678
											}
										}
									}
								}
								JOINT newVegas:LeftHandIndex1
								{
									OFFSET 18.578728 -0.527832 5.208049
									CHANNELS 3 Xrotation Yrotation Zrotation
									JOINT newVegas:LeftHandIndex2
									{
										OFFSET 3.192009 0.000000 0.000000
										CHANNELS 3 Xrotation Yrotation Zrotation
										JOINT newVegas:LeftHandIndex3
										{
											OFFSET 3.835129 0.000000 0.000000
											CHANNELS 3 Xrotation Yrotation Zrotation
											End Site
											{
												OFFSET -0.034599 3.816971 0.371180
											}
										}
									}
								}
								JOINT newVegas:LeftHandMiddle1
								{
									OFFSET 18.476105 0.000000 0.000000
									CHANNELS 3 Xrotation Yrotation Zrotation
									JOINT newVegas:LeftHandMiddle2
									{
										OFFSET 3.324875 0.000000 0.000000
										CHANNELS 3 Xrotation Yrotation Zrotation
										JOINT newVegas:LeftHandMiddle3
										{
											OFFSET 4.596550 0.000000 0.000000
											CHANNELS 3 Xrotation Yrotation Zrotation
											End Site
											{
												OFFSET 0.057701 4.578827 0.399218
											}
										}
									}
								}
								JOINT newVegas:LeftHandRing1
								{
									OFFSET 17.732719 0.121887 -4.201567
									CHANNELS 3 Xrotation Yrotation Zrotation
									JOINT newVegas:LeftHandRing2
									{
										OFFSET 2.733170 0.000000 0.000000
										CHANNELS 3 Xrotation Yrotation Zrotation
										JOINT newVegas:LeftHandRing3
										{
											OFFSET 3.178268 0.000000 0.000000
											CHANNELS 3 Xrotation Yrotation Zrotation
											End Site
											{
												OFFSET 0.119102 3.170624 0.185394
											}
										}
									}
								}
								JOINT newVegas:LeftHandPinky1
								{
									OFFSET 15.989624 -0.606689 -7.535461
									CHANNELS 3 Xrotation Yrotation Zrotation
									JOINT newVegas:LeftHandPinky2
									{
										OFFSET 2.538986 0.000000 0.000000
										CHANNELS 3 Xrotation Yrotation Zrotation
										JOINT newVegas:LeftHandPinky3
										{
											OFFSET 2.593102 0.000000 0.000000
											CHANNELS 3 Xrotation Yrotation Zrotation
											End Site
											{
												OFFSET -0.150902 2.584198 0.152708
											}
										}
									}
								}
							}
							JOINT newVegas:Left_Sleeve
							{
								OFFSET 0.267448 -0.649796 0.577675
								CHANNELS 3 Xrotation Yrotation Zrotation
								End Site
								{
									OFFSET 0.000000 15.991241 0.000000
								}
							}
							JOINT newVegas:Left_CapeC
							{
								OFFSET 15.715958 -8.608795 -6.935905
								CHANNELS 3 Xrotation Yrotation Zrotation
								JOINT newVegas:Left_CapeC1
								{
									OFFSET 0.000000 -8.688499 0.000000
									CHANNELS 3 Xrotation Yrotation Zrotation
									End Site
									{
										OFFSET 0.000000 8.688499 0.000000
									}
								}
							}
						}
						JOINT newVegas:Left_CapeB
						{
							OFFSET 26.118385 -8.608795 -7.079235
							CHANNELS 3 Xrotation Yrotation Zrotation
							JOINT newVegas:Left_CapeB1
							{
								OFFSET 0.000000 -8.688499 0.000000
								CHANNELS 3 Xrotation Yrotation Zrotation
								End Site
								{
									OFFSET 0.000000 8.688499 0.000000
								}
							}
						}
						JOINT newVegas:Left_CapeA
						{
							OFFSET 5.115639 -8.608795 -10.395809
							CHANNELS 3 Xrotation Yrotation Zrotation
							JOINT newVegas:Left_CapeA1
							{
								OFFSET 0.000000 -8.688499 0.000000
								CHANNELS 3 Xrotation Yrotation Zrotation
								End Site
								{
									OFFSET 0.000000 8.688499 0.000000
								}
							}
						}
					}
				}
				JOINT newVegas:RightShoulder
				{
					OFFSET -15.263000 10.923401 -0.547700
					CHANNELS 3 Xrotation Yrotation Zrotation
					JOINT newVegas:RightArm
					{
						OFFSET -25.438599 -2.830597 -13.032500
						CHANNELS 3 Xrotation Yrotation Zrotation
						JOINT newVegas:RightForeArm
						{
							OFFSET -29.960503 0.000000 0.000000
							CHANNELS 3 Xrotation Yrotation Zrotation
							JOINT newVegas:RightHand
							{
								OFFSET -27.849251 0.000000 0.000000
								CHANNELS 3 Xrotation Yrotation Zrotation
								JOINT newVegas:RightHandThumb1
								{
									OFFSET -4.487587 -3.305161 6.305391
									CHANNELS 3 Xrotation Yrotation Zrotation
									JOINT newVegas:RightHandThumb2
									{
										OFFSET -5.480453 -3.164139 3.164143
										CHANNELS 3 Xrotation Yrotation Zrotation
										JOINT newVegas:RightHandThumb3
										{
											OFFSET -5.159721 -2.978973 2.978967
											CHANNELS 3 Xrotation Yrotation Zrotation
											End Site
											{
												OFFSET -2.494507 5.926697 1.738678
											}
										}
									}
								}
								JOINT newVegas:RightHandIndex1
								{
									OFFSET -18.578728 -0.527832 5.208049
									CHANNELS 3 Xrotation Yrotation Zrotation
									JOINT newVegas:RightHandIndex2
									{
										OFFSET -3.192009 0.000000 0.000000
										CHANNELS 3 Xrotation Yrotation Zrotation
										JOINT newVegas:RightHandIndex3
										{
											OFFSET -3.835129 0.000000 0.000000
											CHANNELS 3 Xrotation Yrotation Zrotation
											End Site
											{
												OFFSET 0.034599 3.816971 0.371180
											}
										}
									}
								}
								JOINT newVegas:RightHandMiddle1
								{
									OFFSET -18.476105 0.000000 0.000000
									CHANNELS 3 Xrotation Yrotation Zrotation
									JOINT newVegas:RightHandMiddle2
									{
										OFFSET -3.324875 0.000000 0.000000
										CHANNELS 3 Xrotation Yrotation Zrotation
										JOINT newVegas:RightHandMiddle3
										{
											OFFSET -4.596550 0.000000 0.000000
											CHANNELS 3 Xrotation Yrotation Zrotation
											End Site
											{
												OFFSET -0.057701 4.578827 0.399218
											}
										}
									}
								}
								JOINT newVegas:RightHandRing1
								{
									OFFSET -17.732719 0.121887 -4.201567
									CHANNELS 3 Xrotation Yrotation Zrotation
									JOINT newVegas:RightHandRing2
									{
										OFFSET -2.733170 0.000000 0.000000
										CHANNELS 3 Xrotation Yrotation Zrotation
										JOINT newVegas:RightHandRing3
										{
											OFFSET -3.178268 0.000000 0.000000
											CHANNELS 3 Xrotation Yrotation Zrotation
											End Site
											{
												OFFSET -0.119102 3.170624 0.185394
											}
										}
									}
								}
								JOINT newVegas:RightHandPinky1
								{
									OFFSET -15.989624 -0.606689 -7.535461
									CHANNELS 3 Xrotation Yrotation Zrotation
									JOINT newVegas:RightHandPinky2
									{
										OFFSET -2.538986 0.000000 0.000000
										CHANNELS 3 Xrotation Yrotation Zrotation
										JOINT newVegas:RightHandPinky3
										{
											OFFSET -2.593102 0.000000 0.000000
											CHANNELS 3 Xrotation Yrotation Zrotation
											End Site
											{
												OFFSET 0.150902 2.584198 0.152708
											}
										}
									}
								}
							}
							JOINT newVegas:Right_CapeC
							{
								OFFSET -15.715958 -8.608795 -6.935905
								CHANNELS 3 Xrotation Yrotation Zrotation
								JOINT newVegas:Right_CapeC1
								{
									OFFSET 0.000000 -8.688499 0.000000
									CHANNELS 3 Xrotation Yrotation Zrotation
									End Site
									{
										OFFSET 0.000000 8.688499 0.000000
									}
								}
							}
							JOINT newVegas:Right_Sleeve
							{
								OFFSET -0.267448 -0.649994 0.577675
								CHANNELS 3 Xrotation Yrotation Zrotation
								End Site
								{
									OFFSET 0.000000 15.991302 0.000000
								}
							}
						}
						JOINT newVegas:Right_CapeA
						{
							OFFSET -5.115540 -8.608795 -10.395824
							CHANNELS 3 Xrotation Yrotation Zrotation
							JOINT newVegas:Right_CapeA1
							{
								OFFSET 0.000000 -8.688499 0.000000
								CHANNELS 3 Xrotation Yrotation Zrotation
								End Site
								{
									OFFSET 0.000000 8.688499 0.000000
								}
							}
						}
						JOINT newVegas:Right_CapeB
						{
							OFFSET -26.118187 -8.608795 -7.079266
							CHANNELS 3 Xrotation Yrotation Zrotation
							JOINT newVegas:Right_CapeB1
							{
								OFFSET 0.000000 -8.688499 0.000000
								CHANNELS 3 Xrotation Yrotation Zrotation
								End Site
								{
									OFFSET 0.000000 8.688499 0.000000
								}
							}
						}
					}
				}
				JOINT newVegas:Left_Collar
				{
					OFFSET 18.625099 8.655502 8.828100
					CHANNELS 3 Xrotation Yrotation Zrotation
					JOINT newVegas:Left_Collar1
					{
						OFFSET 14.783401 10.540405 -1.259500
						CHANNELS 3 Xrotation Yrotation Zrotation
						End Site
						{
							OFFSET 0.000000 18.199875 0.000000
						}
					}
				}
				JOINT newVegas:Collar_Back
				{
					OFFSET 0.000000 15.630707 -20.132601
					CHANNELS 3 Xrotation Yrotation Zrotation
					End Site
					{
						OFFSET 0.000000 22.523010 0.000000
					}
				}
				JOINT newVegas:Left_Peck
				{
					OFFSET 17.239599 -5.132599 25.482599
					CHANNELS 3 Xrotation Yrotation Zrotation
					End Site
					{
						OFFSET 0.000000 22.523010 0.000000
					}
				}
				JOINT newVegas:Right_Peck
				{
					OFFSET -17.239599 -5.132202 25.482599
					CHANNELS 3 Xrotation Yrotation Zrotation
					End Site
					{
						OFFSET 0.000000 22.523010 0.000000
					}
				}
				JOINT newVegas:Right_Collar
				{
					OFFSET -18.625099 8.655792 8.828100
					CHANNELS 3 Xrotation Yrotation Zrotation
					JOINT newVegas:Right_Collar1
					{
						OFFSET -14.783401 10.539993 -1.259500
						CHANNELS 3 Xrotation Yrotation Zrotation
						End Site
						{
							OFFSET 0.000000 18.199631 0.000000
						}
					}
				}
			}
		}
		JOINT newVegas:Belly
		{
			OFFSET 0.000000 -6.540398 9.014299
			CHANNELS 3 Xrotation Yrotation Zrotation
			End Site
			{
				OFFSET 0.000000 11.566666 0.000000
			}
		}
	}
	JOINT newVegas:ElvisFacialAnim_Joint
	{
		OFFSET 1.000000 -95.330101 -8.825800
		CHANNELS 3 Xrotation Yrotation Zrotation
		End Site
		{
			OFFSET 0.000000 35.315800 0.000000
		}
	}
}
MOTION
Frames: 4
Frame Time: 0.033333
-1.824350 68.579430 1.704731 34.041810 -45.653852 24.256780 -0.000000 -0.000001 0.000000 -102.390642 -4.480820 32.903337 94.978439 4.224239 -2.186491 -7.419924 -3.628091 6.425512 -0.000000 -0.000000 -0.000001 0.000000 -0.000000 -0.000000 -75.869372 10.800175 4.569933 95.792495 -10.433181 -3.655783 -41.500731 -6.256294 17.125569 0.000000 0.000002 0.000000 0.000002 -0.000002 -0.000000 31.175920 -2.814306 -4.343057 6.742428 -2.568826 0.468964 6.777712 -2.427740 0.599521 -5.152728 4.694696 -3.377660 -5.152704 4.694687 -3.377666 -0.000002 -0.000003 0.000003 -5.152657 4.694699 -3.377670 -5.152773 4.694728 -3.377662 0.000001 0.000001 -0.000001 -0.000002 -0.000003 0.000001 6.868078 -9.317436 -7.693861 -76.460320 -4.450379 -27.727056 37.247538 -29.904727 29.448101 -5.599348 -0.587999 8.527352 40.109972 -15.297052 -0.359986 5.639614 28.097559 11.338823 -0.000003 -0.000002 -0.000005 6.881616 2.840486 -61.140486 8.247826 7.639982 -89.898328 -0.000000 -0.000001 -0.000000 -2.346187 4.689427 -62.655094 8.754224 9.897011 -87.051335 0.000001 -0.000001 0.000001 -9.042892 10.045754 -60.766137 8.524230 9.508753 -66.893787 -0.000000 -0.000001 -0.000001 -17.947254 14.755118 -51.486089 8.868865 8.666887 -84.812419 0.000001 0.000002 0.000000 -0.000000 0.000000 -0.000001 -0.000000 0.000000 -0.000001 -0.000000 0.000000 -0.000001 0.000001 0.000001 -0.000000 0.000001 -0.000000 -0.000003 0.000001 0.000001 -0.000000 0.000000 0.000001 0.000001 5.029693 17.950895 27.519254 -21.132668 6.047099 18.476375 -33.308200 19.950356 13.253125 -0.363883 -1.316985 -11.168520 -2.345482 -6.101478 10.731463 2.364357 -23.807389 -8.771392 0.000005 0.000001 -0.000004 -0.053158 0.532262 0.731570 0.020097 -0.087203 5.084433 0.000001 0.000003 0.000002 0.348321 -5.918863 2.582984 1.432595 -4.204177 24.051698 -0.000007 -0.000001 -0.000001 1.205855 -11.756063 4.154281 1.794864 -3.771791 26.866016 -0.000002 0.000001 -0.000000 2.126253 -19.166778 11.320061 3.354728 -2.122185 18.828081 0.000002 0.000002 -0.000001 0.000000 0.000001 0.000002 -0.000000 -0.000000 0.000002 0.000000 0.000001 -0.000001 0.000000 -0.000002 -0.000000 0.000000 -0.000001 -0.000000 0.000000 -0.000002 -0.000000 0.000000 -0.000001 -0.000000 -0.000002 -0.000000 0.000003 -0.000002 -0.000000 0.000003 -0.000002 -0.000000 0.000003 -0.000002 -0.000000 0.000003 -0.000002 -0.000000 0.000003 -0.000002 -0.000000 0.000003 -0.000002 -0.000000 0.000003 -0.000000 0.000000 -0.000001 -0.000000 -0.000001 0.000000 
-1.428886 68.498291 6.264490 34.645359 -46.535599 25.840728 -0.000001 -0.000001 -0.000000 -100.122247 -5.952396 32.023509 81.813939 8.681832 -0.751208 -12.224707 -3.921609 7.412326 -0.000000 0.000000 -0.000001 -0.000000 0.000000 0.000000 -72.173502 10.885286 -0.371366 96.382022 -10.005864 -3.642034 -44.727603 -6.802723 16.530513 0.000000 -0.000000 -0.000000 0.000000 0.000002 -0.000002 30.705139 -3.413365 -6.087488 6.397017 -2.089453 -0.099059 6.430963 -1.975537 -0.003612 -5.055632 4.696130 -3.240447 -5.055619 4.696114 -3.240439 -0.000000 0.000001 -0.000003 -5.055628 4.696125 -3.240434 -5.055534 4.696077 -3.240442 0.000001 0.000001 -0.000000 -0.000000 0.000001 -0.000003 7.159978 -8.923291 -7.366829 -76.458394 -4.434408 -27.352285 38.432990 -30.461247 30.337750 -5.667547 -0.137309 7.621286 40.109968 -15.297045 -0.359989 5.639611 28.097561 11.338826 -0.000001 0.000002 -0.000001 6.881616 2.840484 -61.140486 8.247821 7.639980 -89.898328 0.000001 0.000001 -0.000001 -2.346185 4.689425 -62.655087 8.754223 9.897009 -87.051335 0.000000 0.000000 -0.000000 -9.042890 10.045748 -60.766130 8.524230 9.508753 -66.893787 -0.000001 0.000001 -0.000003 -17.947254 14.755113 -51.486089 8.868863 8.666885 -84.812419 0.000002 -0.000004 0.000003 -0.000000 -0.000000 0.000002 -0.000000 -0.000000 0.000002 -0.000000 -0.000000 0.000002 -0.000002 0.000001 -0.000003 -0.000002 -0.000000 -0.000003 -0.000002 0.000001 -0.000003 -0.000003 0.000001 -0.000003 5.029692 17.950897 27.519256 -20.605892 3.610300 17.778281 -34.324972 23.023547 15.606460 -0.379489 -1.287590 -13.046659 0.928841 -4.012664 4.392530 1.042994 -25.079041 -5.109162 -0.000002 -0.000003 0.000001 0.395095 -0.469684 2.461756 -0.561749 -0.526799 8.181193 -0.000002 0.000002 -0.000001 -0.165767 -5.770944 5.090038 1.159203 -4.394037 24.719838 -0.000002 -0.000003 -0.000002 0.271455 -10.906231 5.832458 2.292951 -3.873466 28.313364 0.000002 -0.000001 -0.000001 0.471568 -17.000228 13.810752 4.946418 -2.552565 22.423868 0.000000 -0.000000 0.000003 -0.000000 0.000001 -0.000003 -0.000001 0.000001 -0.000003 -0.000000 0.000001 -0.000004 -0.000000 -0.000002 -0.000001 -0.000000 -0.000001 -0.000000 -0.000000 -0.000002 -0.000001 -0.000000 -0.000001 -0.000001 0.000001 -0.000000 -0.000002 0.000001 -0.000000 -0.000002 0.000001 -0.000000 -0.000002 0.000001 -0.000000 -0.000002 0.000001 -0.000000 -0.000002 0.000001 -0.000000 -0.000002 0.000001 -0.000000 -0.000002 -0.000001 0.000000 -0.000001 -0.000001 -0.000001 -0.000000 
-1.134329 67.996651 11.580418 35.022007 -47.199428 26.495477 -0.000002 -0.000002 0.000001 -96.358028 -8.357923 31.592504 67.863100 11.045189 1.789387 -14.192309 -3.256641 5.460783 -0.000001 0.000002 -0.000000 0.000001 -0.000000 -0.000000 -67.449067 10.997015 -5.785390 96.496079 -9.485543 -3.554534 -47.874749 -8.113831 17.237395 -0.000000 0.000000 -0.000001 -0.000001 -0.000001 -0.000001 30.110619 -3.594799 -7.001086 6.247824 -1.663428 -0.221097 6.276058 -1.555450 -0.157924 -4.953521 4.737628 -3.289007 -4.953504 4.737622 -3.289029 -0.000002 0.000000 -0.000001 -4.953490 4.737619 -3.289023 -4.953524 4.737628 -3.289017 -0.000003 0.000001 0.000000 -0.000002 0.000000 -0.000001 7.366486 -8.651042 -7.752887 -76.427324 -4.157969 -27.624451 39.805055 -30.800403 31.461217 -5.908766 0.217802 7.441716 40.109965 -15.297050 -0.359988 5.639617 28.097559 11.338823 -0.000001 -0.000003 -0.000006 6.881617 2.840483 -61.140479 8.247825 7.639982 -89.898328 -0.000001 -0.000004 0.000000 -2.346185 4.689425 -62.655087 8.754224 9.897011 -87.051335 0.000001 -0.000000 0.000001 -9.042891 10.045750 -60.766137 8.524229 9.508750 -66.893794 0.000000 0.000001 0.000002 -17.947263 14.755114 -51.486089 8.868865 8.666883 -84.812419 0.000002 -0.000002 -0.000000 0.000000 -0.000000 0.000000 0.000000 -0.000000 0.000000 0.000000 -0.000000 -0.000000 0.000003 -0.000003 0.000003 0.000004 -0.000003 0.000003 0.000003 -0.000003 0.000003 0.000002 -0.000003 0.000003 5.029692 17.950897 27.519257 -19.959462 0.474754 16.855384 -35.793203 27.019045 18.843829 -0.383893 -1.203518 -15.093495 5.267266 -2.542388 -2.762225 -0.238239 -26.771075 -1.024940 0.000000 0.000000 -0.000000 0.967224 -1.555489 4.413734 -1.153597 -1.090974 11.630362 0.000001 0.000002 0.000003 -0.752977 -5.673552 7.896699 0.859083 -4.614503 25.464070 -0.000001 0.000002 0.000000 -0.830066 -10.039979 7.742733 2.856605 -3.960353 29.933116 -0.000002 -0.000001 -0.000002 -1.594060 -14.830823 16.747658 6.795309 -2.806021 26.470992 -0.000002 0.000002 -0.000002 0.000002 0.000001 -0.000000 0.000002 0.000002 0.000001 0.000002 0.000001 -0.000001 0.000002 0.000001 0.000001 0.000002 0.000002 0.000001 0.000002 0.000001 0.000001 0.000002 0.000002 0.000000 0.000001 -0.000000 0.000003 0.000001 -0.000000 0.000003 0.000001 -0.000000 0.000003 0.000001 -0.000000 0.000003 0.000001 -0.000000 0.000003 0.000001 -0.000000 0.000003 0.000001 -0.000000 0.000003 0.000001 -0.000001 -0.000000 -0.000002 -0.000002 0.000001 
-0.760860 67.030495 17.432510 35.397954 -48.032096 27.205019 0.000001 -0.000002 -0.000001 -92.254819 -10.423902 33.427127 59.334810 12.433353 3.613094 -12.181755 -2.371280 -0.643026 0.000001 -0.000002 0.000000 -0.000004 -0.000000 -0.000000 -62.602604 11.625643 -11.974145 96.382787 -8.297009 -3.336912 -50.172213 -9.762208 18.649429 -0.000000 -0.000002 -0.000000 -0.000001 0.000003 -0.000003 29.426456 -3.735910 -7.629371 6.107815 -1.341830 -0.469833 6.130538 -1.249547 -0.428603 -4.826256 4.771750 -3.263425 -4.826239 4.771742 -3.263419 -0.000002 -0.000001 0.000001 -4.826221 4.771786 -3.263441 -4.826315 4.771709 -3.263413 0.000003 0.000001 -0.000001 -0.000002 -0.000001 0.000001 7.281922 -8.177655 -7.877671 -75.869591 -3.525195 -27.929105 40.372531 -31.261622 31.913304 -5.870545 0.417270 7.557282 40.109961 -15.297049 -0.359992 5.639614 28.097558 11.338823 -0.000001 0.000001 -0.000001 6.881616 2.840485 -61.140479 8.247826 7.639980 -89.898328 -0.000000 -0.000001 0.000001 -2.346187 4.689426 -62.655087 8.754223 9.897009 -87.051335 -0.000000 -0.000000 -0.000000 -9.042890 10.045751 -60.766130 8.524225 9.508753 -66.893794 0.000001 0.000001 -0.000001 -17.947253 14.755111 -51.486096 8.868863 8.666882 -84.812419 0.000001 -0.000002 -0.000000 0.000000 0.000001 -0.000000 0.000000 0.000001 -0.000000 -0.000000 0.000001 -0.000000 -0.000002 -0.000003 -0.000001 -0.000001 -0.000003 -0.000001 -0.000002 -0.000003 -0.000001 -0.000003 -0.000003 -0.000001 5.029693 17.950897 27.519251 -19.359227 -2.807091 15.824597 -37.576948 31.156263 22.480994 -0.375589 -1.088358 -17.236404 9.905715 -2.072465 -9.518376 -1.234205 -28.618708 2.842285 -0.000001 -0.000006 -0.000007 1.577398 -2.547471 6.282579 -1.651627 -1.691248 14.887751 -0.000005 -0.000003 -0.000005 -1.316684 -5.648440 10.558217 0.580356 -4.831379 26.168318 -0.000004 -0.000000 0.000000 -1.925827 -9.304640 9.585067 3.396413 -4.016320 31.470021 -0.000000 0.000002 -0.000000 -3.746837 -13.048329 19.676720 8.592615 -2.817492 30.323537 0.000001 0.000002 -0.000001 0.000001 -0.000000 0.000001 0.000001 -0.000002 0.000001 -0.000000 0.000000 -0.000000 0.000000 0.000001 -0.000000 0.000000 0.000002 -0.000000 0.000000 0.000001 -0.000000 0.000000 0.000002 0.000000 -0.000000 0.000002 -0.000002 -0.000000 0.000002 -0.000002 -0.000000 0.000002 -0.000002 -0.000000 0.000002 -0.000002 -0.000000 0.000002 -0.000002 -0.000000 0.000002 -0.000002 -0.000000 0.000002 -0.000002 0.000002 0.000001 -0.000001 0.000001 -0.000002 -0.000001 
